<?xml version="1.0" encoding="utf-8" standalone="yes"?>
<!DOCTYPE svg PUBLIC "-//W3C//DTD SVG 1.1//EN" "http://www.w3.org/Graphics/SVG/1.1/DTD/svg11.dtd">
<svg width="62" height="62" viewBox="0 0 62 62" style="fill:none;stroke:none;fill-rule:evenodd;clip-rule:evenodd;stroke-linecap:round;stroke-linejoin:round;stroke-miterlimit:1.5;" version="1.1" xmlns="http://www.w3.org/2000/svg" xmlns:xlink="http://www.w3.org/1999/xlink"><g id="items" style="isolation: isolate"><g id="blend" style="mix-blend-mode: normal"><g id="g-root-ic_linu_18fp2amr8t1q9-fill" data-item-order="8000000000" transform="translate(3, 3)"></g><g id="g-root-ic_linu_18fp2amr8t1q9-stroke" data-item-order="8000000000" transform="translate(3, 3)"><g id="ic_linu_18fp2amr8t1q9-stroke" fill="none" stroke-linecap="round" stroke-linejoin="round" stroke-miterlimit="4" stroke="#3bc482" stroke-width="2"><g><path d="M 45.25 45.25C 45.25 45.25 43.645 42.579998 41.380001 38.574997L 36.25 35.5L 39.654999 35.5C 35.5 28 30.205 17.755001 28 10.75C 26.989069 13.820088 25.791847 16.825668 24.415001 19.75L 27.25 23.5L 23.17 22.389999C 17.815001 33.52 10.75 45.25 10.75 45.25C 14.807024 42.472813 19.284149 40.365929 24.01 39.010002C 23.665726 38.13089 23.49262 37.194088 23.5 36.25C 23.5 32.935001 25.51 30.25 28 30.25C 30.49 30.25 32.5 32.935001 32.5 36.25C 32.507381 37.194088 32.334274 38.13089 31.99 39.010002C 36.715851 40.365929 41.192978 42.472813 45.25 45.25Z"></path></g></g></g></g></g></svg>